HIERARCHY
ROOT Hips
{
	OFFSET 0.000000 121.760803 0.000000
	CHANNELS 6 Xposition Yposition Zposition Xrotation Yrotation Zrotation 
	JOINT Spine
	{
		OFFSET 0.072000 7.257294 -0.789700
		CHANNELS 3 Xrotation Yrotation Zrotation
		JOINT Spine1
		{
			OFFSET 0.000000 12.508769 -0.658067
			CHANNELS 3 Xrotation Yrotation Zrotation
			JOINT Spine1_split
			{
				OFFSET 0.000000 12.508769 -0.658067
				CHANNELS 3 Xrotation Yrotation Zrotation
				JOINT Spine2
				{
					OFFSET 0.000000 12.508769 -0.658067
					CHANNELS 3 Xrotation Yrotation Zrotation
					JOINT Neck
					{
						OFFSET 0.000000 14.033295 7.520400
						CHANNELS 3 Xrotation Yrotation Zrotation
						JOINT Head
						{
							OFFSET 0.000000 8.198502 5.703100
							CHANNELS 3 Xrotation Yrotation Zrotation
							JOINT HeadTop_End
							{
								OFFSET 0.000000 17.760803 13.332701
								CHANNELS 3 Xrotation Yrotation Zrotation
								End Site
								{
									OFFSET 0.000000 0.000000 0.000000
								}
							}
						}
					}
					JOINT LeftShoulder
					{
						OFFSET 6.292450 5.785301 -0.669000
						CHANNELS 3 Xrotation Yrotation Zrotation
						JOINT LeftShoulder_split
						{
							OFFSET 6.292450 5.785301 -0.669000
							CHANNELS 3 Xrotation Yrotation Zrotation
							JOINT LeftArm
							{
								OFFSET 13.907140 -6.093903 1.965100
								CHANNELS 3 Xrotation Yrotation Zrotation
								JOINT LeftForeArm
								{
									OFFSET 34.140198 0.000000 0.000000
									CHANNELS 3 Xrotation Yrotation Zrotation
									JOINT LeftHand
									{
										OFFSET 40.960209 0.000000 0.000000
										CHANNELS 3 Xrotation Yrotation Zrotation
										JOINT LeftHandThumb1
										{
											OFFSET 10.006996 -7.170425 9.573125
											CHANNELS 3 Xrotation Yrotation Zrotation
											JOINT LeftHandThumb2
											{
												OFFSET 1.835007 -1.059448 1.059443
												CHANNELS 3 Xrotation Yrotation Zrotation
												JOINT LeftHandThumb3
												{
													OFFSET 2.112267 -1.219513 1.219518
													CHANNELS 3 Xrotation Yrotation Zrotation
													JOINT LeftHandThumb4
													{
														OFFSET 4.843811 -2.796570 2.796576
														CHANNELS 3 Xrotation Yrotation Zrotation
														End Site
														{
															OFFSET 0.000000 0.000000 0.000000
														}
													}
												}
											}
										}
										JOINT LeftHandIndex1
										{
											OFFSET 18.389847 -0.922348 4.596882
											CHANNELS 3 Xrotation Yrotation Zrotation
											JOINT LeftHandIndex2
											{
												OFFSET 4.711273 0.000000 0.000000
												CHANNELS 3 Xrotation Yrotation Zrotation
												JOINT LeftHandIndex3
												{
													OFFSET 2.886131 0.000000 0.000000
													CHANNELS 3 Xrotation Yrotation Zrotation
													JOINT LeftHandIndex4
													{
														OFFSET 6.145912 0.000000 0.000000
														CHANNELS 3 Xrotation Yrotation Zrotation
														End Site
														{
															OFFSET 0.000000 0.000000 0.000000
														}
													}
												}
											}
										}
										JOINT LeftHandMiddle1
										{
											OFFSET 18.013008 0.000000 0.000000
											CHANNELS 3 Xrotation Yrotation Zrotation
											JOINT LeftHandMiddle2
											{
												OFFSET 4.946693 0.000000 0.000000
												CHANNELS 3 Xrotation Yrotation Zrotation
												JOINT LeftHandMiddle3
												{
													OFFSET 3.342232 0.000000 0.000000
													CHANNELS 3 Xrotation Yrotation Zrotation
													JOINT LeftHandMiddle4
													{
														OFFSET 4.461754 0.000000 0.000000
														CHANNELS 3 Xrotation Yrotation Zrotation
														End Site
														{
															OFFSET 0.000000 0.000000 0.000000
														}
													}
												}
											}
										}
										JOINT LeftHandRing1
										{
											OFFSET 15.849892 -0.102921 -4.126150
											CHANNELS 3 Xrotation Yrotation Zrotation
											JOINT LeftHandRing2
											{
												OFFSET 3.527054 0.000000 0.000000
												CHANNELS 3 Xrotation Yrotation Zrotation
												JOINT LeftHandRing3
												{
													OFFSET 2.961098 0.000000 0.000000
													CHANNELS 3 Xrotation Yrotation Zrotation
													JOINT LeftHandRing4
													{
														OFFSET 4.927200 0.000000 0.000000
														CHANNELS 3 Xrotation Yrotation Zrotation
														End Site
														{
															OFFSET 0.000000 0.000000 0.000000
														}
													}
												}
											}
										}
										JOINT LeftHandPinky1
										{
											OFFSET 12.791824 -0.832031 -6.799156
											CHANNELS 3 Xrotation Yrotation Zrotation
											JOINT LeftHandPinky2
											{
												OFFSET 3.327133 0.000000 0.000000
												CHANNELS 3 Xrotation Yrotation Zrotation
												JOINT LeftHandPinky3
												{
													OFFSET 3.014900 0.000000 0.000000
													CHANNELS 3 Xrotation Yrotation Zrotation
													JOINT LeftHandPinky4
													{
														OFFSET 5.847786 0.000000 0.000000
														CHANNELS 3 Xrotation Yrotation Zrotation
														End Site
														{
															OFFSET 0.000000 0.000000 0.000000
														}
													}
												}
											}
										}
									}
								}
							}
						}
					}
					JOINT RightShoulder
					{
						OFFSET -6.292450 5.785301 -0.669000
						CHANNELS 3 Xrotation Yrotation Zrotation
						JOINT RightShoulder_split
						{
							OFFSET -6.292450 5.785301 -0.669000
							CHANNELS 3 Xrotation Yrotation Zrotation
							JOINT RightArm
							{
								OFFSET -13.907140 -6.093903 1.965100
								CHANNELS 3 Xrotation Yrotation Zrotation
								JOINT RightForeArm
								{
									OFFSET -34.140198 0.000000 0.000000
									CHANNELS 3 Xrotation Yrotation Zrotation
									JOINT RightHand
									{
										OFFSET -40.960209 0.000000 0.000000
										CHANNELS 3 Xrotation Yrotation Zrotation
										JOINT RightHandThumb1
										{
											OFFSET -10.007050 -7.170456 9.573117
											CHANNELS 3 Xrotation Yrotation Zrotation
											JOINT RightHandThumb2
											{
												OFFSET -1.835007 -1.059448 1.059443
												CHANNELS 3 Xrotation Yrotation Zrotation
												JOINT RightHandThumb3
												{
													OFFSET -2.112267 -1.219513 1.219518
													CHANNELS 3 Xrotation Yrotation Zrotation
													JOINT RightHandThumb4
													{
														OFFSET -4.843834 -2.796585 2.796590
														CHANNELS 3 Xrotation Yrotation Zrotation
														End Site
														{
															OFFSET 0.000000 0.000000 0.000000
														}
													}
												}
											}
										}
										JOINT RightHandIndex1
										{
											OFFSET -18.389870 -0.922424 4.596786
											CHANNELS 3 Xrotation Yrotation Zrotation
											JOINT RightHandIndex2
											{
												OFFSET -4.711273 0.000000 0.000000
												CHANNELS 3 Xrotation Yrotation Zrotation
												JOINT RightHandIndex3
												{
													OFFSET -2.886131 0.000000 0.000000
													CHANNELS 3 Xrotation Yrotation Zrotation
													JOINT RightHandIndex4
													{
														OFFSET -6.145920 0.000000 0.000000
														CHANNELS 3 Xrotation Yrotation Zrotation
														End Site
														{
															OFFSET 0.000000 0.000000 0.000000
														}
													}
												}
											}
										}
										JOINT RightHandMiddle1
										{
											OFFSET -18.013008 0.000000 0.000000
											CHANNELS 3 Xrotation Yrotation Zrotation
											JOINT RightHandMiddle2
											{
												OFFSET -4.946693 0.000000 0.000000
												CHANNELS 3 Xrotation Yrotation Zrotation
												JOINT RightHandMiddle3
												{
													OFFSET -3.342232 0.000000 0.000000
													CHANNELS 3 Xrotation Yrotation Zrotation
													JOINT RightHandMiddle4
													{
														OFFSET -4.461754 0.000000 0.000000
														CHANNELS 3 Xrotation Yrotation Zrotation
														End Site
														{
															OFFSET 0.000000 0.000000 0.000000
														}
													}
												}
											}
										}
										JOINT RightHandRing1
										{
											OFFSET -15.849876 -0.102936 -4.126237
											CHANNELS 3 Xrotation Yrotation Zrotation
											JOINT RightHandRing2
											{
												OFFSET -3.527054 0.000000 0.000000
												CHANNELS 3 Xrotation Yrotation Zrotation
												JOINT RightHandRing3
												{
													OFFSET -2.961098 0.000000 0.000000
													CHANNELS 3 Xrotation Yrotation Zrotation
													JOINT RightHandRing4
													{
														OFFSET -4.927200 0.000000 0.000000
														CHANNELS 3 Xrotation Yrotation Zrotation
														End Site
														{
															OFFSET 0.000000 0.000000 0.000000
														}
													}
												}
											}
										}
										JOINT RightHandPinky1
										{
											OFFSET -12.791786 -0.832077 -6.799222
											CHANNELS 3 Xrotation Yrotation Zrotation
											JOINT RightHandPinky2
											{
												OFFSET -3.327133 0.000000 0.000000
												CHANNELS 3 Xrotation Yrotation Zrotation
												JOINT RightHandPinky3
												{
													OFFSET -3.014900 0.000000 0.000000
													CHANNELS 3 Xrotation Yrotation Zrotation
													JOINT RightHandPinky4
													{
														OFFSET -5.847786 0.000000 0.000000
														CHANNELS 3 Xrotation Yrotation Zrotation
														End Site
														{
															OFFSET 0.000000 0.000000 0.000000
														}
													}
												}
											}
										}
									}
								}
							}
						}
					}
				}
			}
		}
	}
	JOINT LeftUpLeg
	{
		OFFSET 13.026900 -6.336304 -1.092800
		CHANNELS 3 Xrotation Yrotation Zrotation
		JOINT LeftLeg
		{
			OFFSET 0.524474 -46.096886 9.782700
			CHANNELS 3 Xrotation Yrotation Zrotation
			JOINT LeftFoot
			{
				OFFSET -0.524474 -53.427422 -12.948200
				CHANNELS 3 Xrotation Yrotation Zrotation
				JOINT LeftToeBase
				{
					OFFSET 0.192200 -14.009700 16.364100
					CHANNELS 3 Xrotation Yrotation Zrotation
					JOINT LeftToe_End
					{
						OFFSET -1.784700 -0.561700 9.474800
						CHANNELS 3 Xrotation Yrotation Zrotation
						End Site
						{
							OFFSET 0.000000 0.000000 0.000000
						}
					}
				}
			}
		}
	}
	JOINT RightUpLeg
	{
		OFFSET -12.883000 -6.336304 -1.092800
		CHANNELS 3 Xrotation Yrotation Zrotation
		JOINT RightLeg
		{
			OFFSET -0.524587 -46.096825 9.782800
			CHANNELS 3 Xrotation Yrotation Zrotation
			JOINT RightFoot
			{
				OFFSET 0.524587 -53.427383 -12.948300
				CHANNELS 3 Xrotation Yrotation Zrotation
				JOINT RightToeBase
				{
					OFFSET -0.192200 -14.009700 16.364100
					CHANNELS 3 Xrotation Yrotation Zrotation
					JOINT RightToe_End
					{
						OFFSET 1.784700 -0.561700 9.474800
						CHANNELS 3 Xrotation Yrotation Zrotation
						End Site
						{
							OFFSET 0.000000 0.000000 0.000000
						}
					}
				}
			}
		}
	}
}
MOTION
Frames: 4
Frame Time: 0.016667
0.014304 169.463867 0.938757 -1.011755 1.653336 -0.800362 -2.802973 -0.167096 1.115303 -5.611652 -0.102273 -0.620860 0.000000 0.000000 0.000000 -5.611655 -0.102272 -0.620860 -27.780268 0.884575 -2.478856 -5.939970 -1.809258 2.604353 0.000001 -0.000000 -0.000000 7.248321 6.365627 32.385158 0.000000 0.000000 0.000000 -52.895321 -36.819900 5.857826 -23.466853 -23.506897 1.478708 -3.826420 -2.003291 0.833604 -23.505085 8.724623 4.055164 -11.818396 8.158638 13.633633 -0.000002 -0.000005 -0.000012 -0.000001 0.000003 0.000002 -0.793899 -9.944894 -73.989862 -8.742879 -2.825253 -82.562350 -0.000009 0.000011 -0.000006 -0.000000 0.000000 0.000000 -7.057131 -4.106582 -72.543986 -5.071196 -4.491863 -69.918434 -0.000002 0.000007 -0.000001 -0.000001 0.000000 -0.000003 -10.868850 6.242565 -70.785615 -0.409543 -6.819475 -77.462466 0.000003 0.000007 0.000001 -0.000001 -0.000000 0.000003 -15.058351 6.364033 -69.029075 0.828484 -8.182872 -68.648633 0.000006 -0.000001 0.000006 -0.000002 0.000001 0.000001 2.277543 -6.651283 -36.122562 0.000000 0.000000 0.000000 -64.303834 35.763892 7.685031 -24.527684 16.757169 0.686876 10.835000 10.092825 2.136020 -17.327312 6.468919 -26.575948 3.045283 -20.332853 1.155719 -0.000001 0.000025 0.000001 0.000001 0.000002 0.000001 -8.189449 4.700916 83.344304 -5.502022 0.854500 81.248925 -0.000002 -0.000008 -0.000004 0.000000 -0.000000 -0.000000 -13.105692 1.845245 86.654952 -5.617179 1.089103 83.764573 0.000008 0.000007 0.000000 0.000001 0.000000 0.000000 -13.657539 -7.092636 77.657837 -0.194363 7.087298 77.421342 0.000001 0.000000 0.000005 -0.000000 0.000000 0.000000 -17.941843 -11.668147 76.734853 1.092281 11.886552 73.232858 0.000000 0.000002 0.000001 -0.000000 -0.000001 0.000000 -23.982954 8.028507 4.603988 40.748591 13.592427 1.268197 35.205763 1.590383 5.851917 -0.000001 0.000009 -0.000003 -0.000001 -0.000000 -0.000002 -7.657305 -7.867149 -3.724886 28.539770 -18.077515 2.671393 43.150687 0.484781 2.629838 -0.000002 -0.000003 0.000002 -0.000001 0.000001 0.000000 
0.297063 169.159424 0.478004 -0.858766 1.467304 -0.526201 -2.728097 -0.001356 0.900973 -5.454584 0.132121 -0.464096 0.000000 0.000000 0.000000 -5.454581 0.132120 -0.464096 -28.934864 1.054856 -3.177759 -5.198144 -1.919964 3.212581 0.000001 0.000000 0.000000 7.446502 6.603388 32.450335 0.000000 0.000000 0.000000 -54.448926 -35.183773 3.471659 -24.716318 -26.798671 2.385690 -2.089423 -0.267380 0.161398 -23.495547 8.735362 4.099169 -11.816011 8.165969 13.633304 0.000003 -0.000006 -0.000012 0.000001 -0.000001 -0.000001 -0.798131 -9.946876 -74.031396 -8.750725 -2.825436 -82.619751 -0.000009 0.000011 -0.000004 0.000000 0.000000 -0.000000 -7.063503 -4.107377 -72.604289 -5.077517 -4.493770 -69.977330 -0.000001 0.000008 0.000002 -0.000000 0.000000 -0.000000 -10.882246 6.239429 -70.819021 -0.412564 -6.821503 -77.522852 0.000003 0.000005 -0.000001 -0.000000 -0.000000 -0.000002 -15.087318 6.354702 -69.042264 0.827794 -8.184442 -68.710918 0.000006 0.000002 0.000004 -0.000001 0.000001 -0.000000 2.388916 -6.364263 -35.754599 0.000000 0.000000 0.000000 -64.004986 34.598207 7.322055 -24.670425 19.891097 0.003034 11.125953 8.673202 4.184490 -17.283799 6.418253 -26.304655 3.064540 -20.360352 1.166118 -0.000002 0.000023 -0.000001 -0.000001 0.000002 0.000001 -8.185385 4.699039 83.315761 -5.510752 0.853755 81.338114 -0.000002 -0.000008 -0.000005 -0.000000 -0.000000 -0.000000 -13.046160 1.831966 86.514373 -5.595990 1.090001 83.530495 0.000006 0.000007 -0.000000 0.000000 -0.000000 -0.000000 -13.616079 -7.089681 77.376672 -0.170982 7.073156 77.042410 0.000002 0.000001 0.000004 0.000001 0.000001 0.000000 -17.831254 -11.643990 76.290877 1.111517 11.863461 72.805835 0.000000 0.000004 0.000002 -0.000001 -0.000001 -0.000001 -25.479005 8.113220 3.586386 42.496423 9.832925 1.122165 34.708368 1.433092 2.817107 -0.130943 -0.066202 0.133189 -0.000003 -0.000002 0.000000 -9.040665 -7.743423 -5.162876 34.052284 -17.212618 3.602559 39.359740 0.837233 4.713558 0.104427 1.803737 0.387922 -0.000002 0.000000 0.000000 
0.611097 168.743332 -0.319577 -0.598871 0.931949 -0.240796 -2.643796 0.261263 0.663756 -5.279449 0.526127 -0.270102 0.000000 0.000000 0.000000 -5.279446 0.526126 -0.270102 -29.410525 0.905853 -3.426294 -5.302065 -1.820671 3.677569 -0.000001 0.000000 -0.000000 7.870905 7.117305 32.582260 0.000000 0.000000 0.000000 -57.915858 -34.418450 -0.704274 -26.183259 -29.980125 4.243774 1.291428 1.133876 -1.465719 -23.490581 8.740853 4.122862 -11.815335 8.169575 13.633550 0.000003 -0.000004 -0.000013 0.000000 0.000000 0.000001 -0.800599 -9.948099 -74.055732 -8.755211 -2.825499 -82.652652 -0.000009 0.000011 -0.000005 0.000000 0.000000 0.000001 -7.067261 -4.108008 -72.638030 -5.081075 -4.494804 -70.010586 0.000000 0.000008 -0.000000 0.000001 0.000000 0.000002 -10.889674 6.237613 -70.837825 -0.414254 -6.822655 -77.556750 0.000003 0.000006 -0.000003 0.000001 -0.000000 -0.000000 -15.103462 6.349292 -69.049633 0.827414 -8.185247 -68.745144 0.000007 0.000002 0.000005 0.000000 -0.000000 0.000000 2.490090 -6.094539 -35.392852 0.000000 0.000000 0.000000 -63.972412 33.630724 7.079527 -24.776940 22.588516 -0.847460 11.676223 7.518028 6.413616 -17.301658 6.439003 -26.415046 3.056095 -20.348445 1.161286 -0.000004 0.000023 -0.000000 -0.000001 0.000001 -0.000001 -8.187147 4.700023 83.323868 -5.507081 0.854099 81.300302 -0.000002 -0.000008 -0.000004 0.000000 0.000000 0.000000 -13.070151 1.838109 86.568242 -5.604630 1.089754 83.625407 0.000007 0.000007 0.000000 0.000001 -0.000000 0.000000 -13.632577 -7.090490 77.490122 -0.180630 7.078965 77.198445 0.000001 0.000000 0.000005 0.000001 0.000000 0.000000 -17.876733 -11.653720 76.473305 1.103594 11.872920 72.981555 -0.000000 0.000002 0.000003 -0.000003 -0.000000 0.000001 -27.433730 8.217530 2.319492 45.078279 4.899444 0.888306 33.375900 1.780372 0.437348 -0.133653 -0.247613 0.149180 -0.000002 -0.000000 -0.000000 -10.772213 -7.633576 -6.479921 40.256049 -13.786472 4.514102 33.852251 1.192080 8.702267 0.675270 2.489620 1.117274 0.000000 0.000000 0.000001 
0.947223 168.385620 -1.347820 -0.254020 0.044701 -0.006824 -2.553610 0.598313 0.466378 -5.097276 1.039579 -0.044115 0.000000 0.000000 0.000000 -5.097281 1.039580 -0.044115 -29.440923 0.570002 -3.397075 -5.910961 -1.569222 4.078034 -0.000000 0.000000 -0.000000 8.458166 7.825097 32.740741 0.000000 0.000000 0.000000 -62.473862 -34.058824 -5.800714 -27.569529 -32.988854 6.946116 5.686076 2.103970 -3.638411 -23.494003 8.736962 4.107991 -11.816696 8.166774 13.634033 0.000003 -0.000008 -0.000013 0.000003 -0.000001 -0.000001 -0.799339 -9.947600 -74.043581 -8.752825 -2.825450 -82.635126 -0.000010 0.000011 -0.000003 0.000000 0.000000 0.000001 -7.065400 -4.107954 -72.618838 -5.079106 -4.494252 -69.992152 -0.000003 0.000008 0.000002 -0.000000 -0.000000 -0.000002 -10.885400 6.238501 -70.827354 -0.413270 -6.821993 -77.537633 0.000002 0.000005 0.000001 -0.000001 -0.000001 0.000002 -15.094172 6.352026 -69.045453 0.827637 -8.184758 -68.724749 0.000006 -0.000001 0.000001 -0.000001 0.000001 0.000001 2.587533 -5.828014 -35.023960 0.000000 0.000000 0.000000 -64.095260 32.796321 6.908420 -24.852733 25.024797 -1.814147 12.403236 6.558989 8.612021 -17.355014 6.501275 -26.748633 3.032314 -20.314591 1.148213 -0.000004 0.000021 -0.000000 -0.000001 -0.000002 -0.000000 -8.192457 4.702511 83.357971 -5.496478 0.854982 81.191838 -0.000002 -0.000008 -0.000004 -0.000000 0.000000 0.000000 -13.143546 1.854609 86.740110 -5.630819 1.088596 83.913833 0.000005 0.000007 0.000001 -0.000001 -0.000000 -0.000000 -13.683663 -7.094109 77.835921 -0.209476 7.096331 77.666341 0.000002 -0.000001 0.000006 0.000001 -0.000001 0.000000 -18.013936 -11.684591 77.021277 1.079832 11.901423 73.508176 0.000001 0.000000 0.000003 0.000001 0.000002 0.000000 -29.463606 8.340064 0.941220 47.809740 -0.503645 0.603344 31.521098 2.457414 -1.442600 -0.193778 -0.451743 0.151181 0.000002 0.000001 0.000000 -11.992589 -7.560187 -7.644115 45.485232 -9.048869 5.272130 28.019480 1.505980 13.674140 1.065593 2.221612 1.522313 -0.000000 -0.000002 0.000004 
